<svg width="21" height="21" viewBox="0 0 21 21" fill="none" xmlns="http://www.w3.org/2000/svg">
<path d="M8.16667 8.58333H1.16667C1.05616 8.58333 0.950179 8.53943 0.872039 8.46129C0.793899 8.38315 0.75 8.27717 0.75 8.16667V1.16667C0.75 1.05616 0.793899 0.950179 0.872039 0.872039C0.950179 0.793899 1.05616 0.75 1.16667 0.75H8.16667C8.27717 0.75 8.38315 0.793899 8.46129 0.872039C8.53943 0.950179 8.58333 1.05616 8.58333 1.16667V8.16667C8.58333 8.27717 8.53943 8.38315 8.46129 8.46129C8.38315 8.53943 8.27717 8.58333 8.16667 8.58333ZM19.8333 8.58333H12.8333C12.7228 8.58333 12.6168 8.53943 12.5387 8.46129C12.4606 8.38315 12.4167 8.27717 12.4167 8.16667V1.16667C12.4167 1.05616 12.4606 0.950179 12.5387 0.872039C12.6168 0.793899 12.7228 0.75 12.8333 0.75H19.8333C19.9438 0.75 20.0498 0.793899 20.128 0.872039C20.2061 0.950179 20.25 1.05616 20.25 1.16667V8.16667C20.25 8.27717 20.2061 8.38315 20.128 8.46129C20.0498 8.53943 19.9438 8.58333 19.8333 8.58333ZM8.16667 20.25H1.16667C1.05616 20.25 0.950179 20.2061 0.872039 20.128C0.793899 20.0498 0.75 19.9438 0.75 19.8333V12.8333C0.75 12.7228 0.793899 12.6168 0.872039 12.5387C0.950179 12.4606 1.05616 12.4167 1.16667 12.4167H8.16667C8.27717 12.4167 8.38315 12.4606 8.46129 12.5387C8.53943 12.6168 8.58333 12.7228 8.58333 12.8333V19.8333C8.58333 19.9438 8.53943 20.0498 8.46129 20.128C8.38315 20.2061 8.27717 20.25 8.16667 20.25ZM20.25 16.3333C20.25 18.4928 18.4928 20.25 16.3333 20.25C14.1739 20.25 12.4167 18.4928 12.4167 16.3333C12.4167 14.1739 14.1739 12.4167 16.3333 12.4167C18.4928 12.4167 20.25 14.1739 20.25 16.3333Z" stroke="white" stroke-width="1.5"/>
</svg>
