<svg width="58" height="64" viewBox="0 0 58 64" fill="none" xmlns="http://www.w3.org/2000/svg">
<path d="M29.4931 35.6681C28.9994 35.2317 28.2399 35.2317 27.7842 35.6681C27.3285 36.1044 27.3285 36.8316 27.7842 37.3042C28.2399 37.7405 28.9994 37.7405 29.4931 37.3042C29.9868 36.8679 29.9868 36.1407 29.4931 35.6681Z" fill="#006641"/>
<path d="M28.6579 12.5068C14.8723 12.5068 3.66919 23.2328 3.66919 36.4676C3.66919 49.7024 14.8723 60.4284 28.6958 60.4284C42.5194 60.4284 53.7225 49.7024 53.7225 36.4676C53.6845 23.2328 42.4814 12.5432 28.6579 12.5068ZM27.4806 14.7975C27.4806 14.1794 28.0123 13.6703 28.6579 13.6703C29.3035 13.6703 29.8351 14.1794 29.8351 14.7975V19.3787C29.8351 19.9968 29.3035 20.5059 28.6579 20.5059C28.0123 20.5059 27.4806 19.9968 27.4806 19.3787V14.7975ZM10.8088 37.5947H6.02375C5.37814 37.5947 4.84647 37.0857 4.84647 36.4676C4.84647 35.8495 5.37814 35.3405 6.02375 35.3405H10.8088C11.4544 35.3405 11.9861 35.8495 11.9861 36.4676C11.9861 37.0857 11.4544 37.5947 10.8088 37.5947ZM29.8731 58.1377C29.8731 58.7558 29.3414 59.2649 28.6958 59.2649C28.0502 59.2649 27.5186 58.7558 27.5186 58.1377V53.5565C27.5186 52.9384 28.0502 52.4293 28.6958 52.4293C29.3414 52.4293 29.8731 52.9384 29.8731 53.5565V58.1377ZM32.2657 36.4676C32.2657 38.2129 30.8985 39.6672 29.1136 39.8854C27.2907 40.1035 25.6197 38.94 25.202 37.2675C24.7842 35.5586 25.7716 33.8497 27.4806 33.268V25.0508C27.4806 24.4327 28.0123 23.9237 28.6579 23.9237C29.3035 23.9237 29.8351 24.4327 29.8351 25.0508V33.2316C29.9491 33.268 30.063 33.3043 30.1769 33.3771L43.2789 20.8331C43.7346 20.3968 44.4942 20.3968 44.9499 20.8331C45.4056 21.2694 45.4056 21.9966 44.9499 22.4329L31.8859 35.0132C32.1137 35.4495 32.2657 35.9586 32.2657 36.4676ZM51.33 37.5947H46.5449C45.8993 37.5947 45.3676 37.0857 45.3676 36.4676C45.3676 35.8495 45.8993 35.3405 46.5449 35.3405H51.33C51.9756 35.3405 52.5072 35.8495 52.5072 36.4676C52.5072 37.0857 51.9756 37.5947 51.33 37.5947Z" fill="#006641"/>
<path d="M30.9743 9.1989C30.3287 9.16254 29.835 8.61715 29.873 7.96268C29.873 7.96268 29.873 7.96268 29.873 7.92632V3.38141C29.873 2.76331 30.4047 2.25428 31.0503 2.25428H32.2276C32.5314 2.25428 32.8352 2.1452 33.063 1.92704C33.2909 1.70889 33.4428 1.41801 33.4428 1.12714C33.4428 0.50903 32.9111 0 32.2655 0H25.0879C24.7841 0 24.4803 0.109078 24.2524 0.327234C24.0246 0.545389 23.8727 0.836264 23.8727 1.12714C23.8727 1.74525 24.4043 2.25428 25.05 2.25428H26.2272C26.8728 2.25428 27.4045 2.76331 27.4045 3.38141V7.96268C27.4425 8.58079 26.9488 9.12618 26.3032 9.1989C21.4422 9.56249 16.7331 11.1259 12.6695 13.7438C12.6316 13.7802 12.5556 13.7802 12.5176 13.8165C12.4797 13.8529 12.4417 13.8529 12.4037 13.8529C12.2898 13.8892 12.1379 13.9256 11.986 13.9256C11.8341 13.9256 11.7201 13.8892 11.6062 13.8529C11.5682 13.8529 11.5682 13.8529 11.5302 13.8165C11.4163 13.7802 11.3024 13.7075 11.1885 13.5984C11.1885 13.5984 11.1885 13.5984 11.1505 13.5984L8.37817 10.9441C8.3402 10.9078 8.30222 10.8351 8.26424 10.7987C8.18829 10.726 8.15031 10.6533 8.11234 10.5806C8.11234 10.5442 8.07436 10.4715 8.07436 10.4351C8.03638 10.3624 8.03638 10.2533 8.03638 10.1806C8.03638 10.0715 8.07436 9.9988 8.07436 9.92609C8.07436 9.88973 8.07436 9.81701 8.11234 9.78065C8.15031 9.70793 8.18829 9.63521 8.26424 9.59885C8.30222 9.52613 8.3402 9.48977 8.37817 9.41706C8.83389 8.98074 8.83389 8.25356 8.37817 7.81725C8.15031 7.59909 7.8465 7.49001 7.54269 7.49001C7.23887 7.49001 6.93506 7.59909 6.7072 7.81725L3.32727 11.0532C2.87155 11.4895 2.87155 12.2167 3.32727 12.653C3.55513 12.8712 3.85895 12.9803 4.16276 12.9803C4.46657 12.9803 4.77039 12.8712 4.99825 12.653C5.11218 12.544 5.22611 12.4712 5.34004 12.4349C5.60587 12.3258 5.90969 12.2894 6.17552 12.3985C6.36541 12.4349 6.51731 12.544 6.66922 12.653L9.06176 14.9437C9.09973 14.98 9.13771 15.0527 9.17568 15.1255C9.21366 15.1982 9.25164 15.2709 9.28961 15.3073C9.32759 15.38 9.32759 15.4527 9.32759 15.5254C9.36557 15.5981 9.36557 15.6709 9.36557 15.7436C9.36557 15.8163 9.32759 15.889 9.32759 15.9617C9.32759 16.0344 9.28961 16.1072 9.28961 16.1799C9.25164 16.2526 9.21366 16.289 9.17568 16.3617C9.13771 16.4344 9.09973 16.4708 9.06176 16.5435C-0.812191 25.3788 -2.86293 39.6316 4.12478 50.7212C11.1125 61.8108 25.2398 66.6829 38 62.3925C50.7602 58.1385 58.6593 45.8854 56.9504 33.0506C55.3174 20.143 44.4181 10.217 30.9743 9.1989ZM28.6577 62.7198C13.505 62.7198 1.23855 50.9757 1.23855 36.4684C1.23855 21.961 13.505 10.217 28.6577 10.217C43.8105 10.217 56.0769 21.961 56.0769 36.4684C56.0769 50.9394 43.8105 62.6834 28.6577 62.7198Z" fill="white"/>
</svg>
